<?xml version="1.0" standalone="no"?>
<!DOCTYPE svg PUBLIC "-//W3C//DTD SVG 20010904//EN"
 "http://www.w3.org/TR/2001/REC-SVG-20010904/DTD/svg10.dtd">
<svg version="1.0" xmlns="http://www.w3.org/2000/svg"
 width="1920.000000pt" height="1920.000000pt" viewBox="0 0 1920.000000 1920.000000"
 preserveAspectRatio="xMidYMid meet">

<g transform="translate(0.000000,1920.000000) scale(0.100000,-0.100000)"
fill="#000000" stroke="none">
<path d="M9325 16804 c-337 -30 -572 -109 -820 -275 -245 -164 -439 -388 -564
-649 -67 -142 -146 -389 -129 -406 3 -3 75 -14 159 -25 425 -55 639 -129 785
-274 159 -157 192 -315 159 -749 -9 -125 -14 -252 -10 -282 16 -132 105 -178
400 -205 161 -15 549 -15 660 0 417 56 676 186 845 424 89 125 179 378 211
592 28 190 9 459 -46 655 -158 564 -599 998 -1158 1141 -153 39 -378 63 -492
53z"/>
<path d="M7962 15328 c-75 -181 -105 -335 -105 -533 0 -386 150 -732 433 -998
81 -77 222 -178 311 -223 202 -102 496 -165 697 -149 374 31 668 168 920 428
50 53 92 100 92 105 0 5 -37 -1 -83 -13 -204 -55 -499 -75 -807 -56 -393 25
-508 66 -546 199 -18 60 -17 106 6 466 15 237 -4 366 -74 490 -97 172 -287
269 -655 335 -165 30 -154 33 -189 -51z"/>
<path d="M10336 13404 c-135 -26 -281 -86 -386 -157 -112 -76 -245 -227 -305
-347 -106 -211 -119 -381 -59 -773 20 -133 39 -244 41 -247 6 -6 54 49 132
150 132 172 220 322 295 504 25 59 59 129 76 157 65 100 169 167 306 197 296
64 585 -194 561 -503 -7 -90 -33 -166 -118 -343 -216 -451 -546 -861 -964
-1195 -85 -69 -100 -84 -97 -106 2 -14 21 -138 42 -276 76 -481 116 -832 122
-1059 l3 -109 -30 -8 c-16 -5 -408 -76 -870 -159 -1024 -184 -1044 -189 -1228
-282 -173 -88 -309 -241 -411 -459 -24 -52 -90 -227 -146 -389 -130 -375 -316
-882 -532 -1455 -94 -247 -190 -508 -213 -580 -126 -381 -94 -678 92 -864 114
-113 239 -161 424 -161 182 0 349 59 495 174 140 110 191 194 329 536 113 279
757 1864 759 1866 0 1 541 92 1201 203 660 111 1250 214 1310 228 533 125 778
405 849 973 61 489 72 1231 26 1810 -63 795 -246 1569 -467 1980 -206 384
-519 634 -870 695 -104 18 -274 18 -367 -1z"/>
<path d="M10383 12831 c-64 -23 -66 -25 -130 -74 -64 -48 -124 -135 -152 -219
-12 -35 -46 -112 -76 -171 -257 -509 -754 -955 -1348 -1212 -422 -183 -870
-284 -1434 -325 -233 -17 -357 -90 -436 -258 -30 -63 -32 -74 -32 -182 0 -110
2 -118 34 -185 43 -88 118 -162 208 -207 l68 -33 185 2 c396 3 963 106 1399
255 679 232 1225 588 1674 1092 250 281 489 669 588 954 40 116 34 229 -19
342 -34 73 -130 168 -207 205 -52 25 -74 29 -165 32 -85 3 -115 0 -157 -16z"/>
<path d="M12893 12340 c-112 -23 -204 -94 -255 -198 l-33 -67 0 -1930 0 -1930
27 -55 c39 -80 88 -132 160 -171 l63 -34 1957 -3 1957 -2 55 21 c69 25 158
105 191 169 13 26 29 76 35 111 8 45 10 617 8 1939 l-3 1875 -32 67 c-40 84
-97 141 -181 181 l-67 32 -1920 1 c-1056 1 -1939 -2 -1962 -6z"/>
<path d="M5155 10887 c-26 -6 -57 -28 -93 -63 -159 -160 -257 -596 -223 -994
40 -457 186 -749 376 -750 240 0 580 220 753 489 167 258 181 503 44 764 -154
294 -480 532 -767 560 -27 3 -68 0 -90 -6z"/>
<path d="M6409 9772 c-112 -345 -219 -674 -239 -731 l-35 -103 -80 -33 c-298
-119 -559 -297 -815 -554 -208 -209 -354 -401 -515 -675 -80 -137 -204 -397
-260 -547 l-47 -126 -132 -6 c-385 -19 -698 -100 -1031 -268 -426 -215 -831
-594 -1005 -940 -57 -115 -69 -169 -45 -205 36 -56 150 -70 268 -34 54 17 71
28 103 68 271 336 683 590 1115 686 443 98 923 39 1323 -161 193 -97 348 -208
512 -366 l104 -99 11 28 c11 29 140 399 799 2289 546 1567 620 1778 623 1780
1 1 123 -47 272 -106 148 -60 294 -114 324 -120 31 -6 87 -9 126 -7 153 10
228 101 173 208 -30 58 -98 109 -216 161 l-93 41 -87 -11 c-182 -22 -368 -32
-428 -22 -206 34 -358 177 -398 373 -13 64 -12 62 -102 98 -19 8 -31 -23 -225
-618z"/>
<path d="M10525 7556 c-37 -17 -80 -62 -94 -99 -7 -18 -11 -157 -11 -383 0
-402 -2 -392 78 -466 104 -97 99 -182 -48 -771 -129 -515 -253 -889 -356
-1071 -35 -63 -85 -112 -120 -119 -16 -3 -884 -6 -1929 -6 -1045 -1 -1909 -1
-1921 -1 -19 0 -20 -4 -13 -57 19 -153 3 -532 -27 -625 -5 -17 115 -18 2516
-18 l2522 0 -6 28 c-39 181 -44 504 -11 702 96 578 431 1079 924 1384 721 446
1660 384 2315 -153 86 -71 255 -244 317 -326 335 -438 476 -987 394 -1529 -8
-55 -15 -101 -15 -103 0 -1 265 -3 589 -3 l590 0 -5 32 c-134 996 -318 1707
-574 2219 -97 192 -112 290 -55 357 13 16 42 34 64 41 55 16 96 53 116 104 14
37 16 89 13 397 -3 396 -3 392 -75 447 l-36 28 -2556 2 c-2120 2 -2561 0
-2586 -11z"/>
<path d="M3920 6299 c-609 -66 -1145 -408 -1473 -939 -137 -223 -236 -517
-268 -800 -16 -143 -6 -413 20 -555 158 -853 843 -1494 1705 -1596 124 -15
441 -6 551 14 317 60 600 182 845 366 98 73 266 236 343 331 540 669 584 1609
108 2316 -305 454 -761 751 -1301 845 -133 23 -401 33 -530 18z m400 -1249
c327 -92 548 -402 527 -740 -12 -188 -79 -334 -216 -470 -71 -71 -102 -94
-181 -132 -114 -56 -208 -78 -327 -78 -121 0 -209 21 -322 76 -81 40 -109 60
-186 138 -100 100 -146 176 -187 306 -20 64 -23 95 -22 210 0 120 4 144 28
215 71 209 223 370 427 452 140 56 309 65 459 23z"/>
<path d="M12871 6299 c-663 -70 -1257 -488 -1552 -1094 -224 -461 -257 -982
-93 -1474 233 -701 849 -1213 1583 -1315 141 -20 403 -20 540 -1 639 91 1190
487 1480 1063 330 657 259 1455 -184 2047 -75 101 -237 269 -335 348 -402 324
-925 479 -1439 426z m319 -1230 c161 -26 277 -86 400 -209 99 -98 158 -200
191 -327 22 -86 27 -235 10 -318 -59 -295 -293 -525 -586 -576 -100 -17 -252
-7 -350 25 -183 58 -336 191 -425 366 -86 170 -99 380 -34 563 114 327 454
531 794 476z"/>
</g>
</svg>
